<svg xmlns="http://www.w3.org/2000/svg" version="1.1" xmlns:xlink="http://www.w3.org/1999/xlink" xmlns:svgjs="http://svgjs.dev/svgjs" width="1500" height="1500" viewBox="0 0 1500 1500"><rect width="1500" height="1500" fill="#ffffff"></rect><g transform="matrix(0.6666666666666666,0,0,0.6666666666666666,249.78425655976667,249.78425655976673)"><svg viewBox="0 0 343 343" data-background-color="#651e1a" preserveAspectRatio="xMidYMid meet" height="1500" width="1500" xmlns="http://www.w3.org/2000/svg" xmlns:xlink="http://www.w3.org/1999/xlink"><g id="tight-bounds" transform="matrix(1,0,0,1,0.0740000000000407,0.07400000000001228)"><svg viewBox="0 0 342.85155851775386 342.85155851775386" height="342.85155851775386" width="342.85155851775386"><g><svg></svg></g><g><svg viewBox="0 0 342.85155851775386 342.85155851775386" height="342.85155851775386" width="342.85155851775386"><g><path d="M0 171.426c0-94.676 76.75-171.426 171.426-171.426 94.676 0 171.426 76.75 171.426 171.426 0 94.676-76.75 171.426-171.426 171.426-94.676 0-171.426-76.75-171.426-171.426zM171.426 339.059c92.582 0 167.634-75.052 167.633-167.633 0-92.582-75.052-167.634-167.633-167.634-92.582 0-167.634 75.052-167.634 167.634 0 92.582 75.052 167.634 167.634 167.633z" data-fill-palette-color="tertiary" fill="#000000" stroke="transparent"></path><ellipse rx="164.56874808852186" ry="164.56874808852186" cx="171.42577925887693" cy="171.42577925887693" fill="#000000" stroke="transparent" stroke-width="0" fill-opacity="1" data-fill-palette-color="tertiary"></ellipse></g><g transform="matrix(1,0,0,1,64.84655864529837,96.04048537496723)"><svg viewBox="0 0 213.1584412271571 150.7705877678194" height="150.7705877678194" width="213.1584412271571"><g><svg viewBox="0 0 213.1584412271571 150.7705877678194" height="150.7705877678194" width="213.1584412271571"><g><svg viewBox="0 0 213.1584412271571 150.7705877678194" height="150.7705877678194" width="213.1584412271571"><g transform="matrix(1,0,0,1,0,108.72021906703338)"><svg viewBox="0 0 213.1584412271571 42.050368700785995" height="42.050368700785995" width="213.1584412271571"><g id="textblocktransform"><svg viewBox="0 0 213.1584412271571 42.050368700785995" height="42.050368700785995" width="213.1584412271571" id="textblock"><g><svg viewBox="0 0 213.1584412271571 42.050368700785995" height="42.050368700785995" width="213.1584412271571"><g transform="matrix(1,0,0,1,0,0)"><svg width="213.1584412271571" viewBox="2.25 -35.18 218.4 43.09" height="42.050368700785995" data-palette-color="#651e1a"><path d="M16.92-3.13L16.92 0 2.25 0 2.25-34.86 16.92-34.86 16.92-31.74 5.64-31.74 5.64-19.14 16.16-19.14 16.16-16.02 5.64-16.02 5.64-3.13 16.92-3.13ZM31.39-18.09L31.39-14.79 19.06-14.79 19.06-18.09 31.39-18.09ZM43.21 0.32L43.21 0.32Q38.62 0.32 36.57-1.14 34.52-2.59 34.39-5.93L34.39-5.93Q34.27-7.79 34.31-9.3 34.35-10.82 34.47-12.7L34.47-12.7 37.76-12.7Q37.62-10.82 37.63-8.96 37.64-7.1 37.76-5.37L37.76-5.37Q37.89-3.96 39.11-3.28 40.33-2.61 43.13-2.61L43.13-2.61Q45.89-2.61 47.05-3.28 48.21-3.96 48.36-5.37L48.36-5.37Q48.48-7.1 48.47-8.39 48.46-9.67 48.36-11.57L48.36-11.57Q48.26-13.09 47.57-14.11 46.87-15.14 44.48-15.45L44.48-15.45 40.99-16.09Q38.23-16.55 36.85-17.44 35.47-18.33 34.97-19.74 34.47-21.14 34.37-23.17L34.37-23.17Q34.3-24.51 34.32-26.04 34.35-27.56 34.42-29L34.42-29Q34.47-32.32 36.46-33.75 38.45-35.18 43.13-35.18L43.13-35.18Q47.46-35.18 49.42-33.74 51.39-32.3 51.51-28.98L51.51-28.98Q51.58-27.83 51.56-26.14 51.53-24.44 51.46-22.63L51.46-22.63 48.14-22.63Q48.31-24.37 48.31-26.1 48.31-27.83 48.19-29.54L48.19-29.54Q48.09-30.93 46.91-31.59 45.72-32.25 43.06-32.25L43.06-32.25Q40.3-32.25 39.12-31.59 37.93-30.93 37.81-29.54L37.81-29.54Q37.69-27.98 37.7-26.37 37.71-24.76 37.81-23.17L37.81-23.17Q37.91-21.39 38.58-20.45 39.25-19.51 41.77-19.21L41.77-19.21 45.19-18.68Q47.94-18.26 49.34-17.33 50.73-16.41 51.23-14.98 51.73-13.55 51.8-11.57L51.8-11.57Q51.92-9.77 51.9-8.64 51.87-7.52 51.75-5.93L51.75-5.93Q51.58-2.59 49.59-1.14 47.6 0.32 43.21 0.32ZM62.98 0.29L62.98 0.29Q59 0.29 57.37-1.07 55.73-2.44 55.61-5.62L55.61-5.62Q55.46-7.42 55.41-9.63 55.36-11.84 55.41-14.09 55.46-16.33 55.61-18.16L55.61-18.16Q55.73-21.34 57.38-22.71 59.03-24.07 62.98-24.07L62.98-24.07Q66.98-24.07 68.58-22.71 70.18-21.34 70.31-18.16L70.31-18.16Q70.45-16.36 70.5-14.15 70.55-11.94 70.5-9.7 70.45-7.47 70.31-5.62L70.31-5.62Q70.18-2.47 68.58-1.09 66.98 0.29 62.98 0.29ZM62.98-2.44L62.98-2.44Q65.23-2.44 66.18-2.99 67.13-3.54 67.2-4.81L67.2-4.81Q67.45-8.62 67.45-11.89 67.45-15.16 67.2-18.97L67.2-18.97Q67.13-20.26 66.2-20.8 65.28-21.34 62.98-21.34L62.98-21.34Q60.69-21.34 59.75-20.8 58.81-20.26 58.73-18.97L58.73-18.97Q58.51-15.16 58.5-11.88 58.49-8.59 58.73-4.81L58.73-4.81Q58.78-3.54 59.77-2.99 60.76-2.44 62.98-2.44ZM80.07 0.29L80.07 0.29Q77.33 0.29 75.95-0.93 74.57-2.15 74.57-4.96L74.57-4.96 74.57-23.75 77.7-23.75 77.7-4.69Q77.7-3.49 78.46-2.93 79.21-2.37 80.92-2.37L80.92-2.37Q82.66-2.37 83.96-2.95 85.27-3.54 85.88-4.59L85.88-4.59 85.88-23.75 89.05-23.75 89.05 0 85.88 0 85.88-2.25 85.22-2.25Q83.61 0.29 80.07 0.29ZM96.84-19.19L96.84 0 93.69 0 93.69-23.75 96.84-23.75 96.84-21.53 97.52-21.53Q98.16-22.75 99.21-23.41 100.26-24.07 101.82-24.07L101.82-24.07Q104.16-24.07 105.3-22.84 106.43-21.61 106.43-18.58L106.43-18.58Q106.43-17.92 106.38-17.02 106.34-16.11 106.24-15.41L106.24-15.41 103.21-15.41Q103.26-15.65 103.27-16.26 103.28-16.87 103.3-17.48 103.31-18.09 103.31-18.31L103.31-18.31Q103.31-20.12 102.7-20.76 102.09-21.41 100.74-21.41L100.74-21.41Q97.89-21.41 96.84-19.19L96.84-19.19ZM124.62-15.41L124.62-15.41 121.54-15.41Q121.64-16.26 121.63-17.36 121.62-18.46 121.62-19.07L121.62-19.07Q121.59-20.36 120.6-20.85 119.61-21.34 117.37-21.34L117.37-21.34Q115.07-21.34 114.1-20.85 113.12-20.36 113.1-19.07L113.1-19.07Q112.92-15.23 112.92-11.93 112.92-8.62 113.1-4.81L113.1-4.81Q113.12-3.47 114.1-2.95 115.07-2.44 117.34-2.44L117.34-2.44Q119.59-2.44 120.59-2.95 121.59-3.47 121.62-4.81L121.62-4.81Q121.62-5.47 121.63-6.41 121.64-7.35 121.54-8.47L121.54-8.47 124.62-8.47Q124.74-7.76 124.73-6.82 124.72-5.88 124.67-5.13L124.67-5.13Q124.52-2.25 122.87-0.98 121.23 0.29 117.34 0.29L117.34 0.29Q113.44 0.29 111.74-0.98 110.04-2.25 109.92-5.13L109.92-5.13Q109.82-6.93 109.79-9.38 109.75-11.82 109.79-14.28 109.82-16.75 109.92-18.58L109.92-18.58Q110.04-21.53 111.76-22.8 113.49-24.07 117.37-24.07L117.37-24.07Q121.23-24.07 122.92-22.83 124.62-21.58 124.67-18.73L124.67-18.73Q124.72-17.99 124.73-17.05 124.74-16.11 124.62-15.41ZM135.97 0.29L135.97 0.29Q131.94 0.29 130.22-0.98 128.5-2.25 128.38-5.13L128.38-5.13Q128.28-6.93 128.24-9.38 128.21-11.82 128.24-14.28 128.28-16.75 128.38-18.58L128.38-18.58Q128.5-21.53 130.27-22.8 132.04-24.07 135.97-24.07L135.97-24.07Q139.68-24.07 141.34-22.83 143-21.58 143.17-18.73L143.17-18.73Q143.22-17.87 143.27-15.75 143.32-13.62 143.12-11.23L143.12-11.23 131.43-11.23Q131.43-9.69 131.45-8.11 131.48-6.52 131.55-4.81L131.55-4.81Q131.57-3.47 132.58-2.95 133.58-2.44 135.87-2.44L135.87-2.44Q138.14-2.44 139.07-2.95 140-3.47 140.09-4.81L140.09-4.81Q140.17-6.15 140.09-8.47L140.09-8.47 143.12-8.47Q143.24-7.76 143.23-6.82 143.22-5.88 143.17-5.13L143.17-5.13Q143-2.25 141.43-0.98 139.85 0.29 135.97 0.29ZM131.43-13.82L131.43-13.82 140.14-13.82Q140.19-15.48 140.19-16.99 140.19-18.51 140.09-19.07L140.09-19.07Q140-20.29 139.05-20.81 138.09-21.34 135.97-21.34L135.97-21.34Q133.6-21.34 132.59-20.81 131.57-20.29 131.55-19.07L131.55-19.07Q131.48-17.65 131.44-16.36 131.4-15.06 131.43-13.82ZM155.6 0.32L155.6 0.32Q151.01 0.32 148.95-1.14 146.9-2.59 146.78-5.93L146.78-5.93Q146.66-7.79 146.7-9.3 146.73-10.82 146.86-12.7L146.86-12.7 150.15-12.7Q150-10.82 150.02-8.96 150.03-7.1 150.15-5.37L150.15-5.37Q150.27-3.96 151.49-3.28 152.71-2.61 155.52-2.61L155.52-2.61Q158.28-2.61 159.44-3.28 160.6-3.96 160.75-5.37L160.75-5.37Q160.87-7.1 160.86-8.39 160.84-9.67 160.75-11.57L160.75-11.57Q160.65-13.09 159.95-14.11 159.26-15.14 156.86-15.45L156.86-15.45 153.37-16.09Q150.61-16.55 149.24-17.44 147.86-18.33 147.36-19.74 146.86-21.14 146.76-23.17L146.76-23.17Q146.68-24.51 146.71-26.04 146.73-27.56 146.81-29L146.81-29Q146.86-32.32 148.84-33.75 150.83-35.18 155.52-35.18L155.52-35.18Q159.84-35.18 161.81-33.74 163.77-32.3 163.9-28.98L163.9-28.98Q163.97-27.83 163.94-26.14 163.92-24.44 163.85-22.63L163.85-22.63 160.53-22.63Q160.7-24.37 160.7-26.1 160.7-27.83 160.58-29.54L160.58-29.54Q160.48-30.93 159.29-31.59 158.11-32.25 155.45-32.25L155.45-32.25Q152.69-32.25 151.51-31.59 150.32-30.93 150.2-29.54L150.2-29.54Q150.08-27.98 150.09-26.37 150.1-24.76 150.2-23.17L150.2-23.17Q150.3-21.39 150.97-20.45 151.64-19.51 154.15-19.21L154.15-19.21 157.57-18.68Q160.33-18.26 161.72-17.33 163.11-16.41 163.62-14.98 164.12-13.55 164.19-11.57L164.19-11.57Q164.31-9.77 164.29-8.64 164.26-7.52 164.14-5.93L164.14-5.93Q163.97-2.59 161.98-1.14 159.99 0.32 155.6 0.32ZM171.32-19.19L171.32 0 168.17 0 168.17-31.69 171.32-31.69 171.32-21.53 172.07-21.53Q172.93-22.83 174.06-23.45 175.2-24.07 177.17-24.07L177.17-24.07Q179.93-24.07 181.28-22.86 182.62-21.66 182.62-18.82L182.62-18.82 182.62 0 179.49 0 179.49-19.09Q179.49-20.31 178.73-20.86 177.96-21.41 176.25-21.41L176.25-21.41Q172.58-21.41 171.32-19.19L171.32-19.19ZM194.26 0.29L194.26 0.29Q190.28 0.29 188.65-1.07 187.01-2.44 186.89-5.62L186.89-5.62Q186.74-7.42 186.69-9.63 186.64-11.84 186.69-14.09 186.74-16.33 186.89-18.16L186.89-18.16Q187.01-21.34 188.66-22.71 190.31-24.07 194.26-24.07L194.26-24.07Q198.27-24.07 199.87-22.71 201.46-21.34 201.59-18.16L201.59-18.16Q201.73-16.36 201.78-14.15 201.83-11.94 201.78-9.7 201.73-7.47 201.59-5.62L201.59-5.62Q201.46-2.47 199.87-1.09 198.27 0.29 194.26 0.29ZM194.26-2.44L194.26-2.44Q196.51-2.44 197.46-2.99 198.41-3.54 198.49-4.81L198.49-4.81Q198.73-8.62 198.73-11.89 198.73-15.16 198.49-18.97L198.49-18.97Q198.41-20.26 197.48-20.8 196.56-21.34 194.26-21.34L194.26-21.34Q191.97-21.34 191.03-20.8 190.09-20.26 190.01-18.97L190.01-18.97Q189.79-15.16 189.78-11.88 189.77-8.59 190.01-4.81L190.01-4.81Q190.06-3.54 191.05-2.99 192.04-2.44 194.26-2.44ZM209.15-2.25L209.15 7.91 206 7.91 206-23.75 209.15-23.75 209.15-21.53 209.84-21.53Q210.67-22.83 211.83-23.45 212.99-24.07 215.01-24.07L215.01-24.07Q217.79-24.07 219.13-22.86 220.46-21.66 220.53-18.82L220.53-18.82Q220.6-17.58 220.63-15.81 220.65-14.04 220.65-12.07 220.65-10.11 220.63-8.25 220.6-6.4 220.53-4.96L220.53-4.96Q220.46-2.15 219.06-0.93 217.67 0.29 214.89 0.29L214.89 0.29Q213.06 0.29 211.89-0.31 210.71-0.9 209.84-2.25L209.84-2.25 209.15-2.25ZM214.01-2.37L214.01-2.37Q217.31-2.37 217.4-4.69L217.4-4.69Q217.6-8.47 217.56-12.16 217.53-15.84 217.4-19.09L217.4-19.09Q217.36-20.31 216.62-20.86 215.89-21.41 214.16-21.41L214.16-21.41Q210.42-21.41 209.15-19.19L209.15-19.19 209.15-4.59Q209.81-3.39 210.95-2.88 212.08-2.37 214.01-2.37Z" opacity="1" transform="matrix(1,0,0,1,0,0)" fill="#ffffff" class="wordmark-text-0" data-fill-palette-color="quaternary" id="text-0"></path></svg></g></svg></g></svg></g></svg></g><g transform="matrix(1,0,0,1,57.731503257574275,0)"><svg viewBox="0 0 97.69543471200856 98.79313622562663" height="98.79313622562663" width="97.69543471200856"><g><svg xmlns="http://www.w3.org/2000/svg" xml:space="preserve" viewBox="5.5 5 89 90" x="0" y="0" height="98.79313622562663" width="97.69543471200856" class="icon-icon-0" data-fill-palette-color="quaternary" id="icon-0"><path d="M92.46 29.21c1.28-1.74 2.04-3.88 2.04-6.2 0-0.13-0.01-0.27-0.04-0.4l-0.01-0.04-1.99-9.96A2 2 0 0 0 90.5 11h-80c-0.88 0-1.66 0.58-1.92 1.43l-2.99 9.98-0.01 0.02c-0.06 0.19-0.08 0.38-0.08 0.57 0 2.86 1.15 5.45 3 7.34v57.08c0 1.1 0.9 2 2 2s2-0.9 2-2V32.9c1.09 0.39 2.27 0.6 3.5 0.6 3.5 0 6.6-1.72 8.5-4.35 1.9 2.63 5 4.35 8.5 4.35s6.6-1.72 8.5-4.35c1.9 2.63 5 4.35 8.5 4.35s6.6-1.72 8.5-4.35c1.9 2.63 5 4.35 8.5 4.35s6.6-1.72 8.5-4.35c1.9 2.63 5 4.35 8.5 4.35 1.61 0 3.14-0.36 4.5-1.02v54.94c0 1.1 0.9 2 2 2s2-0.9 2-2v-57.8c0-0.14-0.01-0.27-0.04-0.4zM84 29.5c-3.58 0-6.5-2.92-6.5-6.5 0-1.1-0.9-2-2-2s-2 0.9-2 2c0 3.58-2.92 6.5-6.5 6.5s-6.5-2.92-6.5-6.5c0-1.1-0.9-2-2-2s-2 0.9-2 2c0 3.58-2.92 6.5-6.5 6.5s-6.5-2.92-6.5-6.5c0-1.1-0.9-2-2-2s-2 0.9-2 2c0 3.58-2.92 6.5-6.5 6.5s-6.5-2.92-6.5-6.5c0-1.1-0.9-2-2-2s-2 0.9-2 2c0 3.58-2.92 6.5-6.5 6.5-3.49 0-6.36-2.78-6.49-6.24L11.99 15h76.87l1.63 8.16A6.5 6.5 0 0 1 84 29.5M88.5 9h-76a2 2 0 0 1 0-4h76a2 2 0 0 1 0 4m4 86h-85a2 2 0 0 1 0-4h85a2 2 0 0 1 0 4m-54-7.792h-20a2 2 0 0 1-2-2v-42a2 2 0 0 1 2-2h20a2 2 0 0 1 2 2v42a2 2 0 0 1-2 2m-18-4h16v-38h-16z m62 4h-36a2 2 0 0 1-2-2v-42a2 2 0 0 1 2-2h36a2 2 0 0 1 2 2v42a2 2 0 0 1-2 2m-34-4h32v-38h-32z m-14.75-17a2 2 0 1 1-3.999 0.001 2 2 0 0 1 3.999-0.001m24.789 2.461a2 2 0 0 1-1.414-3.414l4.922-4.921a2 2 0 1 1 2.828 2.828l-4.922 4.921a2 2 0 0 1-1.414 0.586m7 0a2 2 0 0 1-1.414-3.414l4.922-4.921a2 2 0 1 1 2.828 2.828l-4.922 4.921a2 2 0 0 1-1.414 0.586" fill="#ffffff" data-fill-palette-color="quaternary"></path></svg></g></svg></g><g></g></svg></g></svg></g></svg></g></svg></g><defs></defs></svg><rect width="342.85155851775386" height="342.85155851775386" fill="none" stroke="none" visibility="hidden"></rect></g></svg></g></svg>